<!-- icon666.com - MILLIONS vector ICONS FREE --><svg viewBox="0 0 64 64" xmlns="http://www.w3.org/2000/svg"><g id="_26-Barometer" data-name="26-Barometer"><circle cx="32" cy="35" fill="#f5fdff" r="25"></circle><path d="m32 18a25 25 0 0 1 24.677 21 25 25 0 1 0 -49.354 0 25 25 0 0 1 24.677-21z" fill="#dbf3ff"></path><path d="m34.99 35.16 5.01 5.84-6.01-3.76a2.956 2.956 0 0 0 1-2.08z" fill="#fec524"></path><path d="m26 24 5.83 8.01a2.978 2.978 0 0 0 -2.57 1.77z" fill="#fec524"></path><path d="m32 32a3 3 0 0 1 3 3 .86.86 0 0 1 -.01.16 3 3 0 0 1 -2.99 2.84 3 3 0 0 1 -3-3 2.934 2.934 0 0 1 .26-1.22 2.978 2.978 0 0 1 2.57-1.77.97.97 0 0 1 .17-.01z" fill="#2254c4"></path><path d="m36 3v4.29a27.731 27.731 0 0 0 -8 0v-4.29a2.006 2.006 0 0 1 2-2h4a2.006 2.006 0 0 1 2 2z" fill="#2254c4"></path><path d="m34 5h-4a2.006 2.006 0 0 1 -2-2v4.29a27.731 27.731 0 0 1 8 0v-4.29a2.006 2.006 0 0 1 -2 2z" fill="#163780"></path><path d="m28 7.29a27.731 27.731 0 0 1 8 0 28 28 0 1 1 -8 0zm4 2.71a24.975 24.975 0 1 0 .05 0z" fill="#2862e6"></path><path d="m47 35h4a18.966 18.966 0 0 1 -10.15 16.81l-1.87-3.54a14.983 14.983 0 0 0 8.02-13.27z" fill="#d9414e"></path><path d="m51 35h-4a15.005 15.005 0 0 0 -15-15v-4a19.017 19.017 0 0 1 19 19z" fill="#feaf03"></path><path d="m32 16v4a15.005 15.005 0 0 0 -15 15h-4a19.018 19.018 0 0 1 11.52-17.46 18.844 18.844 0 0 1 7.48-1.54z" fill="#2c6cfc"></path><path d="m14.53 42.48a18.976 18.976 0 0 1 -1.53-7.48h4a14.983 14.983 0 0 0 8.02 13.27l-1.87 3.54a19.043 19.043 0 0 1 -8.62-9.33z" fill="#3faedc"></path><g fill="#2862e6"><path d="m32.495 16.024a.2.2 0 0 0 .005-.024v-4a.5.5 0 0 0 -1 0v4 .026c.166 0 .328-.026.5-.026s.329.02.495.024z"></path><path d="m13.024 34.505a.2.2 0 0 0 -.024-.005h-4a.5.5 0 0 0 0 1h4c.009 0 .017-.005.025-.005 0-.166-.025-.328-.025-.495s.02-.329.024-.495z"></path><path d="m55 34.5h-4c-.009 0-.017.005-.025.005 0 .166.025.328.025.495s-.019.329-.024.495c.009 0 .016.005.024.005h4a.5.5 0 0 0 0-1z"></path><path d="m18.216 48.076-2.57 2.57a.5.5 0 0 0 .708.708l2.569-2.571.008-.011c-.241-.229-.477-.461-.706-.7z"></path><path d="m45.765 21.936c.006 0 .013-.007.019-.012l2.57-2.57a.5.5 0 0 0 -.708-.708l-2.569 2.571c-.006.006-.008.014-.014.021.12.113.25.215.367.332s.221.247.335.366z"></path><path d="m18.936 21.236c0-.006-.007-.014-.013-.019l-2.569-2.571a.5.5 0 0 0 -.708.708l2.57 2.57c.006.006.015.008.021.014.114-.12.216-.251.333-.368s.246-.22.366-.334z"></path><path d="m45.077 48.783 2.569 2.571a.5.5 0 0 0 .708-.708l-2.57-2.57-.015-.009c-.228.24-.457.479-.7.708z"></path><path d="m14.359 42.018c-.009 0-.018 0-.027 0l-3.53 1.52a.5.5 0 1 0 .4.918l3.48-1.5c.025-.007.039-.032.063-.043-.068-.148-.147-.289-.211-.438s-.115-.305-.175-.457z"></path><path d="m49.633 27.983h.024l3.54-1.52a.5.5 0 0 0 -.394-.918l-3.54 1.52c-.008 0-.012.009-.019.012.069.151.151.294.216.447s.112.307.173.459z"></path><path d="m24.984 17.367a.1.1 0 0 0 -.005-.024l-1.52-3.54a.5.5 0 1 0 -.918.394l1.52 3.54c0 .008.011.011.014.018.15-.068.293-.151.445-.215s.311-.112.464-.173z"></path><path d="m14.576 27.49c-.008 0-.013-.01-.02-.013l-3.58-1.431a.5.5 0 1 0 -.372.928l3.581 1.43a.118.118 0 0 0 .02 0c.058-.154.1-.315.165-.468s.141-.294.206-.446z"></path><path d="m49.435 42.521c.008 0 .013.011.021.014l3.569 1.42a.5.5 0 0 0 .37-.93l-3.51-1.395c-.026-.015-.058-.008-.086-.018-.056.151-.1.308-.159.458s-.14.3-.205.451z"></path><path d="m39.509 17.575c0-.008.012-.011.015-.019l1.431-3.58a.5.5 0 0 0 -.929-.372l-1.426 3.581a.118.118 0 0 0 0 .02c.155.058.315.1.468.165s.289.14.441.205z"></path></g><path d="m32 9a26 26 0 1 0 26 26 26 26 0 0 0 -26-26zm0 51a25 25 0 0 1 0-50h.05a25 25 0 0 1 -.05 50z" fill="#163780"></path><circle cx="32" cy="35" fill="#377ffc" r="2"></circle><path d="m27.23 27.69-1.23-1.69 3 9a2.934 2.934 0 0 1 .26-1.22z" fill="#dbf3ff"></path><path d="m33.99 37.24a2.985 2.985 0 0 1 -4.805-1.233 2.945 2.945 0 0 0 -.185.993 3 3 0 0 0 4.99 2.24l6.01 3.76-3.7-4.317z" fill="#dbf3ff"></path><path d="m48 35h-1a14.983 14.983 0 0 1 -8.02 13.27l.468.885a15.99 15.99 0 0 0 8.552-14.155z" fill="#961333"></path><path d="m32 19v1a15.005 15.005 0 0 1 15 15h1a16 16 0 0 0 -16-16z" fill="#fe9503"></path><path d="m16 35h1a15.005 15.005 0 0 1 15-15v-1a16 16 0 0 0 -16 16z" fill="#2254c4"></path><path d="m17 35h-1a15.99 15.99 0 0 0 8.552 14.155l.468-.885a14.983 14.983 0 0 1 -8.02-13.27z" fill="#3d83ae"></path></g></svg>